<svg width="105" height="36" viewBox="0 0 105 36" fill="none" xmlns="http://www.w3.org/2000/svg">
<g filter="url(#filter0_i_225_27)">
<path d="M7.854 15.966H0.919V9.354H7.854V15.966ZM8.177 35.118H0.634L2.439 18.55H6.41L8.177 35.118ZM30.1778 17.581H19.4238V29H12.9448V1.526H19.4238V12.242H30.1778V1.526H36.6378V29H30.1778V17.581ZM49.6864 29.38C47.7104 29.38 45.994 28.962 44.5374 28.126C43.0807 27.2773 41.947 26.0993 41.1364 24.592C40.3384 23.072 39.9394 21.305 39.9394 19.291C39.9394 17.239 40.3447 15.4403 41.1554 13.895C41.9787 12.337 43.125 11.1273 44.5944 10.266C46.0637 9.40467 47.7674 8.974 49.7054 8.974C51.7067 8.974 53.4294 9.411 54.8734 10.285C56.33 11.1463 57.451 12.356 58.2364 13.914C59.0217 15.4593 59.4144 17.2517 59.4144 19.291C59.4144 21.2543 59.0217 22.996 58.2364 24.516C57.4637 26.0233 56.349 27.214 54.8924 28.088C53.4357 28.9493 51.7004 29.38 49.6864 29.38ZM49.7054 24.63C50.592 24.63 51.2824 24.3577 51.7764 23.813C52.2704 23.2557 52.6187 22.5527 52.8214 21.704C53.024 20.8427 53.1254 19.9687 53.1254 19.082C53.1254 18.208 53.0304 17.353 52.8404 16.517C52.6504 15.681 52.3084 14.997 51.8144 14.465C51.3204 13.9203 50.6174 13.648 49.7054 13.648C48.8187 13.648 48.122 13.914 47.6154 14.446C47.1214 14.9653 46.7667 15.643 46.5514 16.479C46.3487 17.3023 46.2474 18.17 46.2474 19.082C46.2474 19.9433 46.3424 20.8047 46.5324 21.666C46.735 22.5147 47.0834 23.224 47.5774 23.794C48.084 24.3513 48.7934 24.63 49.7054 24.63ZM69.5705 29.38C67.9365 29.38 66.6508 29.1963 65.7135 28.829C64.7888 28.4617 64.1111 27.9867 63.6805 27.404C63.2498 26.8087 62.9775 26.15 62.8635 25.428C62.7621 24.706 62.7115 23.9903 62.7115 23.281V0.765999H69.0385V22.445C69.0385 23.0403 69.1778 23.5597 69.4565 24.003C69.7351 24.4337 70.3368 24.706 71.2615 24.82L72.1165 24.877V28.848C71.7111 28.9873 71.2931 29.1077 70.8625 29.209C70.4318 29.323 70.0011 29.38 69.5705 29.38ZM81.1236 29.38C79.895 29.38 78.7676 29.1457 77.7416 28.677C76.7283 28.1957 75.9176 27.499 75.3096 26.587C74.7143 25.675 74.4166 24.5603 74.4166 23.243C74.4166 21.1023 75.24 19.4557 76.8866 18.303C78.546 17.1503 81.1363 16.5677 84.6576 16.555L86.6526 16.536V15.529C86.6526 14.7563 86.431 14.18 85.9876 13.8C85.557 13.4073 84.873 13.2173 83.9356 13.23C83.2896 13.2427 82.631 13.401 81.9596 13.705C81.2883 13.9963 80.807 14.541 80.5156 15.339H75.2146C75.2906 13.857 75.7276 12.6473 76.5256 11.71C77.3363 10.7727 78.4066 10.0823 79.7366 9.639C81.0793 9.19567 82.5803 8.974 84.2396 8.974C86.3803 8.974 88.0776 9.23367 89.3316 9.753C90.5856 10.2597 91.485 10.9753 92.0296 11.9C92.5743 12.812 92.8466 13.8887 92.8466 15.13V29H87.4696L86.9186 25.751C86.2853 27.1317 85.5 28.0817 84.5626 28.601C83.638 29.1203 82.4916 29.38 81.1236 29.38ZM83.3656 25.219C83.7963 25.219 84.208 25.143 84.6006 24.991C84.9933 24.839 85.3416 24.63 85.6456 24.364C85.9496 24.0853 86.1903 23.7813 86.3676 23.452C86.545 23.1227 86.64 22.768 86.6526 22.388V19.709L85.0566 19.728C84.398 19.728 83.714 19.8167 83.0046 19.994C82.308 20.1713 81.719 20.469 81.2376 20.887C80.7563 21.2923 80.5156 21.856 80.5156 22.578C80.5156 23.4013 80.7943 24.0473 81.3516 24.516C81.9216 24.9847 82.593 25.219 83.3656 25.219ZM104.004 22.388V29H97.0694V22.388H104.004ZM104.289 1.526L102.598 19.842H98.5894L96.7844 1.526H104.289Z" fill="#C1DCEB"/>
</g>
<defs>
<filter id="filter0_i_225_27" x="0.634033" y="0.765625" width="103.655" height="38.3516" filterUnits="userSpaceOnUse" color-interpolation-filters="sRGB">
<feFlood flood-opacity="0" result="BackgroundImageFix"/>
<feBlend mode="normal" in="SourceGraphic" in2="BackgroundImageFix" result="shape"/>
<feColorMatrix in="SourceAlpha" type="matrix" values="0 0 0 0 0 0 0 0 0 0 0 0 0 0 0 0 0 0 127 0" result="hardAlpha"/>
<feOffset dy="4"/>
<feGaussianBlur stdDeviation="2"/>
<feComposite in2="hardAlpha" operator="arithmetic" k2="-1" k3="1"/>
<feColorMatrix type="matrix" values="0 0 0 0 0 0 0 0 0 0 0 0 0 0 0 0 0 0 0.25 0"/>
<feBlend mode="normal" in2="shape" result="effect1_innerShadow_225_27"/>
</filter>
</defs>
</svg>
